<svg version="1.1" id="Layer_1" xmlns="http://www.w3.org/2000/svg" xmlns:xlink="http://www.w3.org/1999/xlink" x="0px" y="0px"
	 width="100%" viewBox="0 0 512 512" xml:space="preserve">
<path fill="#EF5350" opacity="1.000000" stroke="none" 
	d="
M289.000000,513.000000 
	C267.979095,513.000000 246.958206,513.000000 225.720123,512.625854 
	C224.826111,511.844971 224.179581,511.148651 223.468018,511.074249 
	C207.864349,509.443115 192.470078,506.428284 177.864822,500.858093 
	C162.447769,494.978333 147.267120,488.306549 132.494263,480.953918 
	C114.579231,472.037384 98.723038,459.844391 83.993317,446.374084 
	C66.813942,430.663483 51.999737,412.880646 39.604279,393.114227 
	C29.455532,376.930511 21.186424,359.870361 14.913087,341.823578 
	C9.128203,325.182007 4.572501,308.270660 2.900581,290.663452 
	C2.842738,290.054291 1.658975,289.552063 0.999998,289.000000 
	C1.000000,267.979095 1.000000,246.958206 1.382993,225.706482 
	C2.839473,220.109360 3.993123,214.757645 4.972835,209.374283 
	C9.691178,183.447647 18.425873,158.969147 31.006124,135.808868 
	C45.962326,108.274490 65.016937,84.111870 88.800545,63.622055 
	C107.449402,47.555870 127.699997,34.168579 150.117935,23.892530 
	C173.359268,13.239047 197.480789,5.998946 222.864029,2.919012 
	C223.642181,2.824594 224.290924,1.663692 225.000000,1.000000 
	C246.020889,1.000000 267.041779,1.000000 288.281799,1.375436 
	C292.940002,2.505893 297.411102,3.109480 301.812866,4.040814 
	C327.966583,9.574496 353.239624,17.482719 376.901001,30.326302 
	C404.433014,45.270916 428.669708,64.097534 449.353577,87.706177 
	C465.487732,106.121750 478.702698,126.244881 489.196777,148.354309 
	C500.460144,172.084610 507.871216,196.823883 511.080688,222.868546 
	C511.176483,223.646057 512.336304,224.292465 513.000000,225.000000 
	C513.000000,246.020889 513.000000,267.041779 512.625793,288.280029 
	C511.837769,289.340820 511.198090,290.145721 511.046387,291.033936 
	C509.976074,297.300659 509.188171,303.620026 507.971039,309.856415 
	C503.810211,331.175964 496.674957,351.565857 486.887970,370.871826 
	C481.094818,382.299438 474.002625,393.114197 466.954407,403.849884 
	C454.383911,422.996948 438.690277,439.509583 421.177612,454.093475 
	C403.640747,468.697540 384.393616,480.788849 363.498138,490.289185 
	C340.355865,500.811066 316.354767,507.948730 291.135803,511.080597 
	C290.356415,511.177399 289.708954,512.336243 289.000000,513.000000 
M151.000000,305.500000 
	C151.011093,323.161041 150.732773,340.828094 151.101486,358.481659 
	C151.646759,384.588654 177.940735,402.670105 202.664322,394.262329 
	C219.360428,388.584412 229.296112,374.112885 229.310455,355.015533 
	C229.359528,289.702148 229.330536,224.388718 229.322495,159.075317 
	C229.322296,157.410507 229.259171,155.743362 229.159592,154.081238 
	C227.748672,130.526932 205.030136,113.431000 182.036758,118.611351 
	C163.493530,122.789093 151.056778,138.230484 151.026794,157.544876 
	C150.950745,206.529816 151.000580,255.514938 151.000000,305.500000 
M318.017181,395.876282 
	C343.774750,399.277161 363.596008,378.766602 363.193359,353.936462 
	C362.496429,310.960510 363.001251,267.965088 362.999481,224.977814 
	C362.998566,202.151276 363.157410,179.323166 362.939697,156.498672 
	C362.743134,135.892151 346.571808,118.937721 326.517120,117.819550 
	C302.723053,116.492889 284.740906,133.815781 284.704468,158.512802 
	C284.607880,223.993271 284.634979,289.473999 284.691193,354.954529 
	C284.709625,376.433655 296.112976,390.621399 318.017181,395.876282 
z"/>
<path fill="#f0f6f0" opacity="1.000000" stroke="none" 
	d="
M289.468628,513.000000 
	C289.708954,512.336243 290.356415,511.177399 291.135803,511.080597 
	C316.354767,507.948730 340.355865,500.811066 363.498138,490.289185 
	C384.393616,480.788849 403.640747,468.697540 421.177612,454.093475 
	C438.690277,439.509583 454.383911,422.996948 466.954407,403.849884 
	C474.002625,393.114197 481.094818,382.299438 486.887970,370.871826 
	C496.674957,351.565857 503.810211,331.175964 507.971039,309.856415 
	C509.188171,303.620026 509.976074,297.300659 511.046387,291.033936 
	C511.198090,290.145721 511.837769,289.340820 512.625793,288.748657 
	C513.000000,363.593719 513.000000,438.187408 513.000000,513.000000 
	C438.645905,513.000000 364.291626,513.000000 289.468628,513.000000 
z"/>
<path fill="#f0f6f0" opacity="1.000000" stroke="none" 
	d="
M513.000000,224.531342 
	C512.336304,224.292465 511.176483,223.646057 511.080688,222.868546 
	C507.871216,196.823883 500.460144,172.084610 489.196777,148.354309 
	C478.702698,126.244881 465.487732,106.121750 449.353577,87.706177 
	C428.669708,64.097534 404.433014,45.270916 376.901001,30.326302 
	C353.239624,17.482719 327.966583,9.574496 301.812866,4.040814 
	C297.411102,3.109480 292.940002,2.505893 288.750488,1.375436 
	C363.593719,1.000000 438.187408,1.000000 513.000000,1.000000 
	C513.000000,75.354088 513.000000,149.708389 513.000000,224.531342 
z"/>
<path fill="#f0f6f0" opacity="1.000000" stroke="none" 
	d="
M0.999998,289.468658 
	C1.658975,289.552063 2.842738,290.054291 2.900581,290.663452 
	C4.572501,308.270660 9.128203,325.182007 14.913087,341.823578 
	C21.186424,359.870361 29.455532,376.930511 39.604279,393.114227 
	C51.999737,412.880646 66.813942,430.663483 83.993317,446.374084 
	C98.723038,459.844391 114.579231,472.037384 132.494263,480.953918 
	C147.267120,488.306549 162.447769,494.978333 177.864822,500.858093 
	C192.470078,506.428284 207.864349,509.443115 223.468018,511.074249 
	C224.179581,511.148651 224.826111,511.844971 225.251465,512.625854 
	C150.406296,513.000000 75.812599,513.000000 1.000000,513.000000 
	C1.000000,438.645905 1.000000,364.291626 0.999998,289.468658 
z"/>
<path fill="#f0f6f0" opacity="1.000000" stroke="none" 
	d="
M224.531342,1.000000 
	C224.290924,1.663692 223.642181,2.824594 222.864029,2.919012 
	C197.480789,5.998946 173.359268,13.239047 150.117935,23.892530 
	C127.699997,34.168579 107.449402,47.555870 88.800545,63.622055 
	C65.016937,84.111870 45.962326,108.274490 31.006124,135.808868 
	C18.425873,158.969147 9.691178,183.447647 4.972835,209.374283 
	C3.993123,214.757645 2.839473,220.109360 1.382993,225.237823 
	C1.000000,150.406296 1.000000,75.812576 1.000000,1.000000 
	C75.354088,1.000000 149.708389,1.000000 224.531342,1.000000 
z"/>
<path fill="#f0f6f0" opacity="1.000000" stroke="none" 
	d="
M151.000000,305.000000 
	C151.000580,255.514938 150.950745,206.529816 151.026794,157.544876 
	C151.056778,138.230484 163.493530,122.789093 182.036758,118.611351 
	C205.030136,113.431000 227.748672,130.526932 229.159592,154.081238 
	C229.259171,155.743362 229.322296,157.410507 229.322495,159.075317 
	C229.330536,224.388718 229.359528,289.702148 229.310455,355.015533 
	C229.296112,374.112885 219.360428,388.584412 202.664322,394.262329 
	C177.940735,402.670105 151.646759,384.588654 151.101486,358.481659 
	C150.732773,340.828094 151.011093,323.161041 151.000000,305.000000 
z"/>
<path fill="#f0f6f0" opacity="1.000000" stroke="none" 
	d="
M317.578857,395.811157 
	C296.112976,390.621399 284.709625,376.433655 284.691193,354.954529 
	C284.634979,289.473999 284.607880,223.993271 284.704468,158.512802 
	C284.740906,133.815781 302.723053,116.492889 326.517120,117.819550 
	C346.571808,118.937721 362.743134,135.892151 362.939697,156.498672 
	C363.157410,179.323166 362.998566,202.151276 362.999481,224.977814 
	C363.001251,267.965088 362.496429,310.960510 363.193359,353.936462 
	C363.596008,378.766602 343.774750,399.277161 317.578857,395.811157 
z"/>
</svg>