<svg version="1.1" id="Layer_1" xmlns="http://www.w3.org/2000/svg" xmlns:xlink="http://www.w3.org/1999/xlink" x="0px" y="0px"
	 width="100%" viewBox="0 0 512 512" enable-backround="none" xml:space="preserve">
<path fill="#4d7cff" opacity="1.000000" stroke="none"
	d="
M226.000000,1.000000 
	C246.687561,1.000000 267.375122,1.000000 288.248230,1.364918 
	C293.624786,2.817603 298.782440,4.111186 304.012573,4.956969 
	C324.955811,8.343790 344.941254,14.837832 364.155212,23.666475 
	C385.105103,33.292770 404.312439,45.602921 422.148926,60.357704 
	C436.979645,72.626030 450.096680,86.401169 461.695679,101.538956 
	C475.439392,119.475845 486.716370,138.985718 495.047150,160.112579 
	C502.632599,179.349335 508.305359,199.070724 511.074097,219.598801 
	C511.191620,220.469940 512.334717,221.202744 513.000000,222.000000 
	C513.000000,245.020889 513.000000,268.041779 512.664185,291.195251 
	C511.889343,292.167023 511.208008,292.963196 511.050354,293.852264 
	C509.971069,299.938721 509.241089,306.095612 507.956238,312.135681 
	C501.581116,342.105194 490.138733,370.126129 473.474792,395.747040 
	C459.220337,417.663330 442.682220,437.898010 421.603546,453.760498 
	C408.760620,463.425323 395.874634,473.285828 381.959869,481.220367 
	C353.765533,497.297516 323.339661,507.434326 290.916260,511.083893 
	C290.214478,511.162872 289.635986,512.336792 289.000000,513.000000 
	C268.312439,513.000000 247.624878,513.000000 226.751816,512.635132 
	C225.720779,511.849945 224.917603,511.226135 224.023331,511.040009 
	C211.165802,508.364319 198.166901,506.252197 185.458755,503.001007 
	C165.227631,497.825195 146.407623,489.055237 128.297958,478.725800 
	C112.078712,469.474640 96.993423,458.539490 83.514023,445.741333 
	C73.029335,435.786530 63.359367,424.839966 54.281376,413.565948 
	C36.819389,391.879791 24.069889,367.448517 15.004814,341.143646 
	C8.955572,323.590088 4.695972,305.603424 2.916346,287.070465 
	C2.844843,286.325836 1.663982,285.687744 1.000000,285.000000 
	C1.000000,266.645782 1.000000,248.291550 1.371566,229.743744 
	C2.151329,228.869415 2.812635,228.228897 2.928295,227.501617 
	C4.002774,220.745239 4.827258,213.946335 6.018207,207.211746 
	C11.134350,178.280884 21.547571,151.230026 36.578293,126.124336 
	C50.446381,102.960594 67.346107,82.170258 87.935234,64.410500 
	C101.819962,52.433838 116.517593,41.744968 132.525970,32.890633 
	C161.103577,17.084183 191.466675,6.625225 224.035095,2.917261 
	C224.753510,2.835469 225.347809,1.663451 226.000000,1.000000 
M316.564423,194.951828 
	C282.408386,175.235718 248.257339,155.511032 214.094513,135.806717 
	C193.263672,123.791962 172.205414,135.853165 172.190567,159.875565 
	C172.150558,224.672852 172.145828,289.470215 172.193085,354.267487 
	C172.210434,378.064789 193.194473,390.241455 213.735367,378.396637 
	C269.811188,346.060944 325.869720,313.695221 381.906250,281.291504 
	C403.085083,269.044617 403.136597,245.030441 382.038147,232.773758 
	C360.455536,220.235825 338.821594,207.786179 316.564423,194.951828 
z"/>
<path fill="#f0f6f0" opacity="1.000000" stroke="none" 
	d="
M1.000000,285.468658 
	C1.663982,285.687744 2.844843,286.325836 2.916346,287.070465 
	C4.695972,305.603424 8.955572,323.590088 15.004814,341.143646 
	C24.069889,367.448517 36.819389,391.879791 54.281376,413.565948 
	C63.359367,424.839966 73.029335,435.786530 83.514023,445.741333 
	C96.993423,458.539490 112.078712,469.474640 128.297958,478.725800 
	C146.407623,489.055237 165.227631,497.825195 185.458755,503.001007 
	C198.166901,506.252197 211.165802,508.364319 224.023331,511.040009 
	C224.917603,511.226135 225.720779,511.849945 226.283157,512.635132 
	C151.072479,513.000000 76.144966,513.000000 1.000000,513.000000 
	C1.000000,437.312592 1.000000,361.624939 1.000000,285.468658 
z"/>
<path fill="#f0f6f0" opacity="1.000000" stroke="none" 
	d="
M225.531342,1.000000 
	C225.347809,1.663451 224.753510,2.835469 224.035095,2.917261 
	C191.466675,6.625225 161.103577,17.084183 132.525970,32.890633 
	C116.517593,41.744968 101.819962,52.433838 87.935234,64.410500 
	C67.346107,82.170258 50.446381,102.960594 36.578293,126.124336 
	C21.547571,151.230026 11.134350,178.280884 6.018207,207.211746 
	C4.827258,213.946335 4.002774,220.745239 2.928295,227.501617 
	C2.812635,228.228897 2.151329,228.869415 1.371566,229.275085 
	C1.000000,153.073441 1.000000,77.146881 1.000000,1.000000 
	C75.687416,1.000000 150.375046,1.000000 225.531342,1.000000 
z"/>
<path fill="#f0f6f0" opacity="1.000000" stroke="none" 
	d="
M513.000000,221.531342 
	C512.334717,221.202744 511.191620,220.469940 511.074097,219.598801 
	C508.305359,199.070724 502.632599,179.349335 495.047150,160.112579 
	C486.716370,138.985718 475.439392,119.475845 461.695679,101.538956 
	C450.096680,86.401169 436.979645,72.626030 422.148926,60.357704 
	C404.312439,45.602921 385.105103,33.292770 364.155212,23.666475 
	C344.941254,14.837832 324.955811,8.343790 304.012573,4.956969 
	C298.782440,4.111186 293.624786,2.817603 288.716919,1.364918 
	C363.593201,1.000000 438.186401,1.000000 513.000000,1.000000 
	C513.000000,74.354080 513.000000,147.708389 513.000000,221.531342 
z"/>
<path fill="#f0f6f0" opacity="1.000000" stroke="none" 
	d="
M289.468628,513.000000 
	C289.635986,512.336792 290.214478,511.162872 290.916260,511.083893 
	C323.339661,507.434326 353.765533,497.297516 381.959869,481.220367 
	C395.874634,473.285828 408.760620,463.425323 421.603546,453.760498 
	C442.682220,437.898010 459.220337,417.663330 473.474792,395.747040 
	C490.138733,370.126129 501.581116,342.105194 507.956238,312.135681 
	C509.241089,306.095612 509.971069,299.938721 511.050354,293.852264 
	C511.208008,292.963196 511.889343,292.167023 512.664185,291.663940 
	C513.000000,365.594208 513.000000,439.188385 513.000000,513.000000 
	C438.645905,513.000000 364.291626,513.000000 289.468628,513.000000 
z"/>
<path fill="#f0f6f0" opacity="1.000000" stroke="none" 
	d="
M316.887268,195.124847 
	C338.821594,207.786179 360.455536,220.235825 382.038147,232.773758 
	C403.136597,245.030441 403.085083,269.044617 381.906250,281.291504 
	C325.869720,313.695221 269.811188,346.060944 213.735367,378.396637 
	C193.194473,390.241455 172.210434,378.064789 172.193085,354.267487 
	C172.145828,289.470215 172.150558,224.672852 172.190567,159.875565 
	C172.205414,135.853165 193.263672,123.791962 214.094513,135.806717 
	C248.257339,155.511032 282.408386,175.235718 316.887268,195.124847 
z"/>
</svg>